<?xml version="1.0" encoding="utf-8"?>
<!-- Generator: Adobe Illustrator 16.0.3, SVG Export Plug-In . SVG Version: 6.00 Build 0)  -->
<!DOCTYPE svg PUBLIC "-//W3C//DTD SVG 1.1//EN" "http://www.w3.org/Graphics/SVG/1.1/DTD/svg11.dtd">
<svg version="1.1" id="Layer_1" xmlns="http://www.w3.org/2000/svg" xmlns:xlink="http://www.w3.org/1999/xlink" x="0px" y="0px"
	 width="100px" height="100px" viewBox="0 0 100 100" enable-background="new 0 0 100 100" xml:space="preserve">
<g>
	<path fill="#FFFFFF" d="M53.71,0h-7.417c-3.285,0-5.957,2.672-5.957,5.956v37.565c0,2.163,1.847,10.544,5.957,10.544h0.13v33.768
		c-0.908,0.748-1.415,1.695-1.415,2.689l1.007,6.432l0.031,0.148C46.654,99.395,48.898,100,50,100c1.118,0,3.385-0.609,3.959-2.92
		l1.014-6.326l0.019-0.232c0-1.002-0.532-1.955-1.485-2.707v-33.75h0.201c4.11,0,5.957-8.381,5.957-10.544V5.956
		C59.667,2.671,56.994,0,53.71,0z M51.302,89.898c0.475,0.266,0.662,0.508,0.713,0.594l-0.943,5.914
		c-0.186,0.586-0.995,0.625-1.07,0.629c-0.009,0-0.861-0.018-1.072-0.641l-0.942-5.904c0.055-0.117,0.255-0.365,0.665-0.605
		l0.736-0.428V54.064h1.156v35.408L51.302,89.898z M56.701,43.521c0,2.493-1.931,7.372-2.999,7.579h-7.399
		c-1.067-0.195-3.003-5.083-3.003-7.579V5.956c0-1.65,1.343-2.991,2.992-2.991h7.417c1.649,0,2.991,1.342,2.991,2.991V43.521z"/>
	<rect x="45.79" y="9.337" fill="#FFFFFF" width="2.965" height="30.8"/>
	<rect x="51.246" y="9.337" fill="#FFFFFF" width="2.966" height="30.8"/>
</g>
</svg>
